<svg width="68" height="68" viewBox="0 0 68 68" fill="none" xmlns="http://www.w3.org/2000/svg">
<g clip-path="url(#clip0_1_472)">
<g clip-path="url(#clip1_1_472)">
<path d="M52.0625 0H15.9375C7.13546 0 0 7.13546 0 15.9375V52.0625C0 60.8645 7.13546 68 15.9375 68H52.0625C60.8645 68 68 60.8645 68 52.0625V15.9375C68 7.13546 60.8645 0 52.0625 0Z" fill="white"/>
<path d="M29.6897 54.6254C18.2813 54.6254 9 45.3442 9 33.936C9 22.5276 18.2813 13.2462 29.6897 13.2462C37.051 13.2462 43.9167 17.2077 47.6067 23.5845L38.6527 28.766C36.806 25.574 33.3712 23.591 29.6897 23.591C23.9854 23.591 19.3448 28.2317 19.3448 33.936C19.3448 39.64 23.9854 44.2807 29.6897 44.2807C33.3715 44.2807 36.8062 42.2977 38.6532 39.1052L47.6072 44.2864C43.9172 50.6639 37.0515 54.6254 29.6897 54.6254Z" fill="#1A222E"/>
<path d="M50.3792 32.7865H48.0802V30.4875H45.7817V32.7865H43.4827V35.0852H45.7817V37.3842H48.0802V35.0852H50.3792V32.7865Z" fill="#1A222E"/>
<path d="M59 32.7865H56.701V30.4875H54.4025V32.7865H52.1035V35.0852H54.4025V37.3842H56.701V35.0852H59V32.7865Z" fill="#1A222E"/>
</g>
</g>
<defs>
<clipPath id="clip0_1_472">
<rect width="68" height="68" rx="34" fill="white"/>
</clipPath>
<clipPath id="clip1_1_472">
<rect width="68" height="68" fill="white"/>
</clipPath>
</defs>
</svg>
