<svg width="68" height="68" viewBox="0 0 68 68" fill="none" xmlns="http://www.w3.org/2000/svg">
<g clip-path="url(#clip0_1_463)">
<rect width="68" height="68" rx="34" fill="#1A212D"/>
<g clip-path="url(#clip1_1_463)">
<path d="M52.0625 0H15.9375C7.13546 0 0 7.13546 0 15.9375V52.0625C0 60.8645 7.13546 68 15.9375 68H52.0625C60.8645 68 68 60.8645 68 52.0625V15.9375C68 7.13546 60.8645 0 52.0625 0Z" fill="white"/>
<path d="M16.8563 28.1622L17.5173 35.5376H34.0222V28.1622H16.8563Z" fill="#1A212D"/>
<path d="M34.0219 13.2343H33.9965H15.528L16.1984 20.6097H34.0219V13.2343Z" fill="#1A212D"/>
<path d="M34.0219 54.9905V47.317L33.9896 47.3256L25.7756 45.1078L25.2505 39.2253H21.2591H17.8468L18.8801 50.8059L33.988 55L34.0219 54.9905Z" fill="#1A212D"/>
<path d="M43.0785 35.5376L42.2224 45.1029L33.9965 47.3232V54.9963L49.1166 50.8059L49.2274 49.5597L50.9606 30.1429L51.1404 28.1622L52.472 13.2343H33.9965V20.6097H44.3891L43.7181 28.1622H33.9965V35.5376H43.0785Z" fill="#1A212D"/>
</g>
</g>
<defs>
<clipPath id="clip0_1_463">
<rect width="68" height="68" rx="34" fill="white"/>
</clipPath>
<clipPath id="clip1_1_463">
<rect width="68" height="68" fill="white"/>
</clipPath>
</defs>
</svg>
