<svg width="68" height="68" viewBox="0 0 68 68" fill="none" xmlns="http://www.w3.org/2000/svg">
<g clip-path="url(#clip0_1_453)">
<g clip-path="url(#clip1_1_453)">
<path d="M52.0625 0H15.9375C7.13546 0 0 7.13546 0 15.9375V52.0625C0 60.8645 7.13546 68 15.9375 68H52.0625C60.8645 68 68 60.8645 68 52.0625V15.9375C68 7.13546 60.8645 0 52.0625 0Z" fill="white"/>
<path d="M37.5028 32.4389H43.0058V27.46H37.5028V32.4389ZM30.952 32.4389H36.4546V27.46H30.952V32.4389ZM24.5319 32.4389H30.0347V27.46H24.5319V32.4389ZM18.1119 32.4389H23.4837V27.46H18.1119V32.4389ZM11.5609 32.4389H17.0637V27.46H11.5609V32.4389ZM18.1119 26.412H23.4837V21.4332H18.1119V26.412ZM24.5319 26.412H30.0347V21.4332H24.5319V26.412ZM30.952 26.412H36.4546V21.4332H30.952V26.412ZM30.952 20.385H36.4546V15.4062H30.952V20.385ZM60.5625 30.2117C60.5625 30.2117 58.204 27.9841 53.3564 28.7704C52.8323 24.9707 48.7706 22.7434 48.7706 22.7434C48.7706 22.7434 44.9711 27.3291 47.7225 32.4389C46.9365 32.832 45.6261 33.3561 43.6608 33.3561H7.63027C6.97515 35.8456 6.97515 52.3539 25.056 52.3539C38.0269 52.3539 47.7225 46.3271 52.3082 35.3212C59.1212 35.8456 60.5625 30.2117 60.5625 30.2117Z" fill="#1A212D"/>
</g>
</g>
<defs>
<clipPath id="clip0_1_453">
<rect width="68" height="68" rx="34" fill="white"/>
</clipPath>
<clipPath id="clip1_1_453">
<rect width="68" height="68" fill="white"/>
</clipPath>
</defs>
</svg>
