<svg width="68" height="68" viewBox="0 0 68 68" fill="none" xmlns="http://www.w3.org/2000/svg">
<g clip-path="url(#clip0_1_411)">
<g clip-path="url(#clip1_1_411)">
<path d="M52.0625 0H15.9375C7.13546 0 0 7.13546 0 15.9375V52.0625C0 60.8645 7.13546 68 15.9375 68H52.0625C60.8645 68 68 60.8645 68 52.0625V15.9375C68 7.13546 60.8645 0 52.0625 0Z" fill="white"/>
<path d="M60.5625 48.5926C59.7893 48.8856 58.9355 48.8848 58.1626 48.591C57.3899 48.297 56.7513 47.7301 56.368 46.9975C53.9606 43.3938 51.3023 39.9526 48.7472 36.4376L47.6393 34.9607C44.5968 39.037 41.5544 42.9507 38.7778 47.0124C38.416 47.7126 37.8122 48.2574 37.0786 48.5453C36.3449 48.8335 35.5316 48.845 34.7902 48.578L46.2068 33.2623L35.5876 19.4234C36.3521 19.1474 37.1883 19.1436 37.9551 19.4127C38.722 19.6818 39.3725 20.2072 39.797 20.9004C42.2633 24.504 44.9958 27.9453 47.7131 31.5934C50.4456 27.9748 53.1484 24.5188 55.6739 20.9447C56.0376 20.2559 56.6419 19.7248 57.3718 19.4524C58.1015 19.1801 58.906 19.1856 59.632 19.4677L55.5114 24.9324C53.6653 27.3692 51.8487 29.8209 49.9287 32.1988C49.7739 32.3374 49.6501 32.5069 49.5653 32.6966C49.4806 32.8862 49.4368 33.0915 49.4368 33.2993C49.4368 33.5067 49.4806 33.712 49.5653 33.9017C49.6501 34.0914 49.7739 34.2608 49.9287 34.3995C53.4586 39.0814 56.9588 43.7779 60.5625 48.5926Z" fill="#1B212A"/>
<path d="M7.4375 33.0703C7.74764 31.5934 7.93966 29.9835 8.36796 28.4771C10.923 19.3941 21.3354 15.6131 28.4984 21.2402C32.6929 24.5338 33.7415 29.201 33.5349 34.4587H9.90396C9.51997 43.852 16.299 49.5234 24.9686 46.6286C26.3749 46.1255 27.6338 45.2803 28.6317 44.1689C29.6297 43.0576 30.3349 41.7151 30.6842 40.2629C31.1421 38.786 31.8806 38.535 33.2836 38.9632C33.0525 40.7612 32.4169 42.4835 31.4242 44.0005C30.4319 45.5175 29.1082 46.7896 27.5533 47.7214C24.984 49.1266 22.0362 49.683 19.1316 49.3117C16.2269 48.9403 13.514 47.66 11.3809 45.6538C9.2706 43.2809 7.9946 40.2831 7.74764 37.1171C7.74764 36.6151 7.55565 36.1128 7.45227 35.6402C7.44241 34.7639 7.4375 33.9073 7.4375 33.0703ZM9.9335 32.4352H31.3047C31.1716 25.6267 26.8738 20.7971 21.1434 20.7528C14.763 20.6642 10.1994 25.3904 9.91873 32.4057L9.9335 32.4352Z" fill="#1B212A"/>
</g>
</g>
<defs>
<clipPath id="clip0_1_411">
<rect width="68" height="68" rx="34" fill="white"/>
</clipPath>
<clipPath id="clip1_1_411">
<rect width="68" height="68" fill="white"/>
</clipPath>
</defs>
</svg>
