<svg width="68" height="68" viewBox="0 0 68 68" fill="none" xmlns="http://www.w3.org/2000/svg">
<g clip-path="url(#clip0_1_444)">
<g clip-path="url(#clip1_1_444)">
<path d="M52.0625 0H15.9375C7.13546 0 0 7.13546 0 15.9375V52.0625C0 60.8645 7.13546 68 15.9375 68H52.0625C60.8645 68 68 60.8645 68 52.0625V15.9375C68 7.13546 60.8645 0 52.0625 0Z" fill="white"/>
<mask id="mask0_1_444" style="mask-type:luminance" maskUnits="userSpaceOnUse" x="7" y="7" width="54" height="54">
<path d="M60.5625 7.4375H7.4375V60.5625H60.5625V7.4375Z" fill="white"/>
</mask>
<g mask="url(#mask0_1_444)">
<path d="M59.5598 31.6343L36.3657 8.44021C36.0482 8.12244 35.6711 7.87039 35.2561 7.69843C34.841 7.52643 34.3961 7.43793 33.9469 7.43793C33.4977 7.43793 33.0528 7.52643 32.6376 7.69843C32.2227 7.87039 31.8455 8.12244 31.5281 8.44021L26.7136 13.2547L32.823 19.364C34.2441 18.866 35.8711 19.2063 37.0032 20.3385C37.5421 20.8785 37.9185 21.5591 38.089 22.3027C38.2596 23.0463 38.2176 23.8229 37.9676 24.5437L43.8563 30.4324C45.2808 29.941 46.9243 30.2579 48.0614 31.3984C48.4396 31.7767 48.7395 32.2256 48.9441 32.7197C49.1486 33.2137 49.2538 33.7431 49.2538 34.2778C49.2535 34.8125 49.1483 35.3419 48.9435 35.836C48.7387 36.3298 48.4389 36.7787 48.0606 37.1567C47.6826 37.5349 47.2337 37.8345 46.7396 38.0391C46.2456 38.2439 45.7162 38.3491 45.1815 38.3488C44.6468 38.3488 44.1171 38.2433 43.6233 38.0388C43.1293 37.834 42.6804 37.5341 42.3024 37.1559C41.1071 35.9606 40.8117 34.2008 41.416 32.7282L35.9242 27.2364V41.6882C36.3229 41.8853 36.6871 42.1456 37.0032 42.4585C37.3811 42.8365 37.681 43.2852 37.8858 43.7792C38.0904 44.273 38.1956 44.8024 38.1956 45.3371C38.1956 45.8718 38.0904 46.4012 37.8858 46.895C37.681 47.3891 37.3811 47.838 37.0032 48.216C36.6252 48.5939 36.1763 48.8938 35.6825 49.0984C35.1884 49.3029 34.659 49.4084 34.1246 49.4084C33.5899 49.4084 33.0605 49.3029 32.5667 49.0984C32.0726 48.8938 31.6237 48.5939 31.2457 48.216C30.8672 47.838 30.5671 47.3893 30.3623 46.8955C30.1572 46.4015 30.0518 45.8718 30.0518 45.3371C30.0518 44.8024 30.1572 44.273 30.3623 43.779C30.5671 43.2849 30.8672 42.8363 31.2457 42.4585C31.6391 42.0667 32.0758 41.7695 32.5789 41.5703V26.984C32.0941 26.7848 31.6391 26.4911 31.2457 26.096C30.6741 25.525 30.2855 24.7968 30.1293 24.0041C29.9734 23.2114 30.0568 22.3901 30.3692 21.6451L24.3429 15.622L8.43857 31.5097C8.12059 31.8274 7.86832 32.2046 7.6962 32.6198C7.52407 33.035 7.43549 33.4799 7.43549 33.9293C7.43549 34.3788 7.52407 34.8239 7.6962 35.2391C7.86832 35.6543 8.12059 36.0315 8.43857 36.3492L31.6343 59.5414C31.9518 59.8591 32.329 60.1112 32.7439 60.2833C33.159 60.4552 33.604 60.5436 34.0531 60.5436C34.5023 60.5436 34.9472 60.4552 35.3624 60.2833C35.7773 60.1112 36.1545 59.8591 36.4719 59.5414L59.5598 36.4902C59.8777 36.1725 60.1301 35.7953 60.3022 35.3802C60.4743 34.965 60.5628 34.5201 60.5628 34.0706C60.5628 33.6212 60.4743 33.176 60.3022 32.7608C60.1301 32.3457 59.8777 31.9685 59.5598 31.6508" fill="#1A222E"/>
</g>
</g>
</g>
<defs>
<clipPath id="clip0_1_444">
<rect width="68" height="68" rx="34" fill="white"/>
</clipPath>
<clipPath id="clip1_1_444">
<rect width="68" height="68" fill="white"/>
</clipPath>
</defs>
</svg>
