<svg width="68" height="68" viewBox="0 0 68 68" fill="none" xmlns="http://www.w3.org/2000/svg">
<g clip-path="url(#clip0_1_431)">
<rect width="68" height="68" rx="34" fill="#1A212D"/>
<g clip-path="url(#clip1_1_431)">
<path d="M52.0625 0H15.9375C7.13546 0 0 7.13546 0 15.9375V52.0625C0 60.8645 7.13546 68 15.9375 68H52.0625C60.8645 68 68 60.8645 68 52.0625V15.9375C68 7.13546 60.8645 0 52.0625 0Z" fill="white"/>
<path d="M16 16L17.9039 37.3597H42.3854L41.5639 46.5212L33.6814 48.6525L25.8138 46.5243L25.2878 40.6418H18.1978L19.2116 51.9816L33.6797 56L48.166 51.9816L50.1082 30.2972H24.3641L23.7177 23.064H50.7267H50.7484L51.381 16H16Z" fill="#1A212D"/>
<path d="M33.6905 16H16L17.9039 37.3597H33.6905V30.2972H24.3641L23.7177 23.064H33.6905V16Z" fill="#1A212D"/>
<path d="M33.6905 48.6494L33.6814 48.6525L25.8138 46.5243L25.2878 40.6418H18.1978L19.2116 51.9816L33.6797 56L33.6905 55.9969V48.6494Z" fill="#1A212D"/>
</g>
</g>
<defs>
<clipPath id="clip0_1_431">
<rect width="68" height="68" rx="34" fill="white"/>
</clipPath>
<clipPath id="clip1_1_431">
<rect width="68" height="68" fill="white"/>
</clipPath>
</defs>
</svg>
