<svg width="68" height="68" viewBox="0 0 68 68" fill="none" xmlns="http://www.w3.org/2000/svg">
<g clip-path="url(#clip0_1_405)">
<g clip-path="url(#clip1_1_405)">
<path d="M52.0625 0H15.9375C7.13546 0 0 7.13546 0 15.9375V52.0625C0 60.8645 7.13546 68 15.9375 68H52.0625C60.8645 68 68 60.8645 68 52.0625V15.9375C68 7.13546 60.8645 0 52.0625 0Z" fill="white"/>
<path d="M17.8797 56.8257L23.0835 53.6764C24.0874 55.4564 25.0007 56.9625 27.1912 56.9625C29.291 56.9625 30.6149 56.1412 30.6149 52.9462V31.2186H37.0053V53.0365C37.0053 59.6551 33.1256 62.6678 27.4651 62.6678C22.3532 62.6678 19.3858 60.0203 17.8796 56.8251" fill="#1A222E"/>
<path d="M40.4762 56.1409L45.6793 53.1285C47.0491 55.3653 48.8293 57.0084 51.9786 57.0084C54.6266 57.0084 56.3149 55.6846 56.3149 53.8587C56.3149 51.6678 54.5804 50.8916 51.659 49.614L50.0618 48.9289C45.4514 46.9665 42.3929 44.5015 42.3929 39.2979C42.3929 34.505 46.0448 30.8531 51.7507 30.8531C55.8131 30.8531 58.7345 32.2684 60.834 35.9656L55.8585 39.1608C54.7628 37.1981 53.5766 36.4222 51.7507 36.4222C49.8791 36.4222 48.6922 37.6091 48.6922 39.1608C48.6922 41.0779 49.8791 41.854 52.6176 43.0411L54.2151 43.7256C59.6469 46.0538 62.7053 48.4269 62.7053 53.7673C62.7053 59.5191 58.1865 62.6684 52.1156 62.6684C46.1818 62.6684 42.3475 59.8384 40.4762 56.1409Z" fill="#1A222E"/>
</g>
</g>
<defs>
<clipPath id="clip0_1_405">
<rect width="68" height="68" rx="34" fill="white"/>
</clipPath>
<clipPath id="clip1_1_405">
<rect width="68" height="68" fill="white"/>
</clipPath>
</defs>
</svg>
