<svg width="68" height="68" viewBox="0 0 68 68" fill="none" xmlns="http://www.w3.org/2000/svg">
<g clip-path="url(#clip0_1_387)">
<g clip-path="url(#clip1_1_387)">
<path d="M52.0625 0H15.9375C7.13546 0 0 7.13546 0 15.9375V52.0625C0 60.8645 7.13546 68 15.9375 68H52.0625C60.8645 68 68 60.8645 68 52.0625V15.9375C68 7.13546 60.8645 0 52.0625 0Z" fill="#F4F2ED"/>
<path fill-rule="evenodd" clip-rule="evenodd" d="M57.3341 20.8021C57.3511 20.8668 57.3601 20.9335 57.3601 21.0004V31.4128C57.3601 31.5464 57.3253 31.6776 57.2595 31.7932C57.1933 31.909 57.0982 32.0049 56.984 32.0713L48.3655 37.1028V47.0757C48.3655 47.3471 48.2234 47.5976 47.9913 47.7344L30.001 58.2359C29.9598 58.2595 29.915 58.2747 29.8701 58.2909C29.8531 58.2967 29.8374 58.3071 29.8196 58.3119C29.6937 58.3453 29.5617 58.3453 29.4358 58.3119C29.4153 58.306 29.3965 58.2946 29.3768 58.2872C29.3356 58.272 29.2926 58.2587 29.2533 58.2359L11.2669 47.7344C11.1526 47.6677 11.0577 47.5718 10.9916 47.4563C10.9255 47.3407 10.8907 47.2093 10.8906 47.0757V15.8389C10.8906 15.7706 10.9 15.7041 10.9168 15.6396C10.9224 15.6178 10.9355 15.5978 10.943 15.576C10.9571 15.5362 10.9702 15.4954 10.9908 15.4583C11.0048 15.4337 11.0254 15.4137 11.0422 15.391C11.0638 15.3606 11.0834 15.3293 11.1087 15.3027C11.1302 15.2809 11.1583 15.2648 11.1826 15.2458C11.2097 15.223 11.2341 15.1983 11.265 15.1803H11.2659L20.2596 9.92954C20.3735 9.86311 20.5026 9.82812 20.6339 9.82812C20.7653 9.82812 20.8944 9.86311 21.0083 9.92954L30.0021 15.1803H30.0039C30.0337 15.1993 30.0592 15.223 30.0863 15.2448C30.1105 15.2638 30.1375 15.2809 30.1591 15.3018C30.1854 15.3293 30.2042 15.3606 30.2265 15.391C30.2425 15.4137 30.264 15.4337 30.277 15.4583C30.2985 15.4963 30.3107 15.5362 30.3259 15.576C30.3333 15.5978 30.3463 15.6178 30.3519 15.6406C30.3692 15.7052 30.3779 15.7719 30.3782 15.8389V35.3491L37.8725 30.9735V20.9995C37.8725 20.9331 37.8818 20.8657 37.8988 20.8021C37.9055 20.7793 37.9174 20.7594 37.9251 20.7376C37.94 20.6977 37.953 20.6569 37.9738 20.6199C37.9878 20.5952 38.0083 20.5753 38.0242 20.5525C38.0468 20.5221 38.0654 20.4908 38.0917 20.4643C38.1132 20.4424 38.1403 20.4263 38.1647 20.4073C38.1926 20.3845 38.2171 20.3599 38.2471 20.3418H38.2481L47.2427 15.0911C47.3564 15.0245 47.4855 14.9895 47.617 14.9895C47.7485 14.9895 47.8776 15.0245 47.9913 15.0911L56.9851 20.3418C57.0169 20.3608 57.0411 20.3845 57.0693 20.4064C57.0926 20.4253 57.1197 20.4424 57.1413 20.4633C57.1675 20.4908 57.1861 20.5221 57.2087 20.5525C57.2255 20.5753 57.2462 20.5952 57.2592 20.6199C57.2807 20.6569 57.2929 20.6977 57.3078 20.7376C57.3163 20.7594 57.3285 20.7793 57.3341 20.8021ZM55.8609 30.9735V22.3148L52.7135 24.152L48.3655 26.6905V35.3491L55.8617 30.9735H55.8609ZM46.8671 46.6363V37.9722L42.5903 40.4491L30.3771 47.5171V56.2628L46.8671 46.6363ZM12.3899 17.1532V46.6363L28.878 56.262V47.5179L20.2643 42.5746L20.2614 42.5728L20.2577 42.5709C20.2287 42.5539 20.2044 42.5292 20.1772 42.5082C20.1538 42.4894 20.1267 42.4742 20.1061 42.4533L20.1043 42.4506C20.0799 42.4267 20.0631 42.3975 20.0425 42.3706C20.0237 42.3451 20.0013 42.3234 19.9863 42.2968L19.9853 42.2939C19.9684 42.2655 19.9581 42.2312 19.9459 42.199C19.9338 42.1706 19.9179 42.1441 19.9104 42.1135V42.1125C19.9011 42.0766 19.8992 42.0386 19.8954 42.0014C19.8917 41.973 19.8842 41.9446 19.8842 41.9162V41.9143V21.529L15.5372 18.9895L12.3899 17.1542V17.1532ZM20.6349 11.465L13.1414 15.8389L20.633 20.2128L28.1254 15.8379L20.633 11.465H20.6349ZM24.5318 38.7616L28.879 36.2241V17.1532L25.7316 18.9905L21.3836 21.529V40.6L24.5318 38.7616ZM47.617 16.6266L40.1243 21.0004L47.617 25.3743L55.1084 20.9995L47.617 16.6266ZM46.8671 26.6905L42.5191 24.152L39.372 22.3148V30.9735L43.719 33.511L46.8671 35.3491V26.6905ZM29.6268 46.2028L40.6165 39.8406L46.1101 36.6616L38.6232 32.2904L30.0029 37.323L22.1463 41.9095L29.6268 46.2028Z" fill="#1A212C"/>
</g>
</g>
<defs>
<clipPath id="clip0_1_387">
<rect width="68" height="68" rx="34" fill="white"/>
</clipPath>
<clipPath id="clip1_1_387">
<rect width="68" height="68" fill="white"/>
</clipPath>
</defs>
</svg>
