<svg width="68" height="68" viewBox="0 0 68 68" fill="none" xmlns="http://www.w3.org/2000/svg">
<g clip-path="url(#clip0_1_490)">
<g clip-path="url(#clip1_1_490)">
<path d="M52.0625 0H15.9375C7.13546 0 0 7.13546 0 15.9375V52.0625C0 60.8645 7.13546 68 15.9375 68H52.0625C60.8645 68 68 60.8645 68 52.0625V15.9375C68 7.13546 60.8645 0 52.0625 0Z" fill="white"/>
<path d="M45.4678 28.5789C42.669 16.2323 36.8358 12.9454 35.3478 10.622C34.7342 9.59844 34.1905 8.5345 33.7208 7.4375C33.6422 8.53432 33.4977 9.22534 32.5654 10.0571C30.6935 11.7261 22.7433 18.2047 22.0742 32.2331C21.4508 45.313 31.6899 53.3781 33.0424 54.2119C34.0826 54.7238 35.3494 54.2228 35.9675 53.7529C40.9031 50.3657 47.6468 41.335 45.4732 28.5789" fill="#1B212B"/>
<path d="M34.1447 47.247C33.8871 50.4844 33.7025 52.3656 33.048 54.2157C33.048 54.2157 33.4775 57.2977 33.7792 60.5625H34.8468C35.1015 58.2635 35.4901 55.9813 36.0113 53.7275C34.6292 53.0475 34.1979 50.0879 34.1447 47.247Z" fill="#1B212B"/>
<path d="M36.0095 53.7293C34.6128 53.0841 34.2088 50.0621 34.1466 47.247C34.4919 42.6031 34.5926 37.9443 34.4484 33.2897C34.3751 30.8476 34.4829 10.6695 33.8467 7.71539C34.2821 8.71595 34.7833 9.68636 35.3478 10.6202C36.8358 12.9455 42.6708 16.2323 45.4678 28.5789C47.6468 41.3132 40.9397 50.32 36.0095 53.7293Z" fill="#1B212B"/>
</g>
</g>
<defs>
<clipPath id="clip0_1_490">
<rect width="68" height="68" rx="34" fill="white"/>
</clipPath>
<clipPath id="clip1_1_490">
<rect width="68" height="68" fill="white"/>
</clipPath>
</defs>
</svg>
