<svg width="68" height="68" viewBox="0 0 68 68" fill="none" xmlns="http://www.w3.org/2000/svg">
<g clip-path="url(#clip0_19_39)">
<rect width="68" height="68" rx="34" fill="white"/>
<path d="M52.0625 0H15.9375C7.13546 0 0 7.13546 0 15.9375V52.0625C0 60.8645 7.13546 68 15.9375 68H52.0625C60.8645 68 68 60.8645 68 52.0625V15.9375C68 7.13546 60.8645 0 52.0625 0Z" fill="white"/>
<mask id="mask0_19_39" style="mask-type:luminance" maskUnits="userSpaceOnUse" x="14" y="14" width="40" height="40">
<path d="M53.3906 14.6094H14.6094V53.3906H53.3906V14.6094Z" fill="white"/>
</mask>
<g mask="url(#mask0_19_39)">
<path fill-rule="evenodd" clip-rule="evenodd" d="M50.3314 44.8178C48.2222 44.7592 46.5858 44.9753 45.2145 45.5523C44.8196 45.7108 44.1859 45.7108 44.1338 46.2079C44.3449 46.4164 44.3703 46.7577 44.5554 47.0468C44.8715 47.5715 45.426 48.2782 45.9268 48.6449L47.6146 49.8509C48.6432 50.4794 49.8036 50.8468 50.8057 51.4759C51.3861 51.843 51.9661 52.3148 52.5465 52.7085C52.8421 52.9181 53.0211 53.2596 53.3906 53.3899V53.3107C53.2062 53.0756 53.153 52.735 52.9692 52.4717L52.177 51.712C51.4128 50.6899 50.4627 49.7979 49.4341 49.0648C48.59 48.488 46.7444 47.7018 46.4014 46.7325L46.3495 46.6737C46.9288 46.6151 47.6146 46.411 48.169 46.2538C49.0663 46.0187 49.8833 46.0704 50.8057 45.8347L52.0725 45.4676V45.2325C51.5977 44.7609 51.2549 44.1316 50.7542 43.6865C49.4093 42.5331 47.9313 41.4057 46.4014 40.4622C45.584 39.9382 44.5287 39.5968 43.6585 39.1521C43.3411 38.9946 42.8143 38.9159 42.6299 38.6539C42.154 38.0783 41.8909 37.3173 41.5481 36.6354L39.3857 32.0747C38.911 31.0524 38.6202 30.0301 38.0408 29.0866C35.3237 24.6305 32.3693 21.931 27.8327 19.2832C26.8573 18.7327 25.6969 18.4959 24.4631 18.2081L22.4851 18.1023C22.0625 17.919 21.6409 17.4208 21.2715 17.1847C19.7682 16.2412 15.8908 14.1967 14.7824 16.8909C14.07 18.5946 15.8376 20.2719 16.4376 21.1373C16.8869 21.7401 17.4662 22.4215 17.7837 23.103C17.961 23.5484 18.0201 24.0207 18.2052 24.4925C18.6267 25.6457 19.0227 26.9305 19.5766 28.0057C19.8722 28.5562 20.1826 29.1336 20.5521 29.6313C20.7631 29.9249 21.1326 30.0507 21.2112 30.5224C20.8417 31.047 20.8163 31.8325 20.6052 32.4888C19.6553 35.4508 20.0247 39.1204 21.3696 41.3012C21.7923 41.9562 22.7884 43.3984 24.1398 42.8475C25.3268 42.3756 25.062 40.8817 25.4048 39.5709C25.4846 39.2568 25.4314 39.0469 25.5893 38.8366V38.8955L26.6711 41.0709C27.4887 42.3552 28.9134 43.6923 30.0997 44.584C30.7323 45.0559 31.2336 45.869 32.0245 46.1568V46.0775H31.9726C31.814 45.8425 31.5764 45.7367 31.3655 45.5533C30.8908 45.0817 30.3634 44.5047 29.9939 43.9808C28.8867 42.5131 27.9113 40.8875 27.0406 39.2102C26.6179 38.3978 26.2484 37.5064 25.9067 36.694C25.7471 36.3792 25.7471 35.9067 25.4841 35.7505C25.088 36.3262 24.5086 36.8256 24.2172 37.5329C23.7159 38.6598 23.6639 40.0492 23.4795 41.491C23.373 41.5173 23.4203 41.491 23.373 41.5496C22.53 41.3406 22.2392 40.4745 21.923 39.7413C21.132 37.8802 20.9995 34.8922 21.6853 32.7426C21.8697 32.1921 22.6619 30.462 22.3456 29.9379C22.186 29.4397 21.6599 29.1519 21.369 28.7583C21.0262 28.2601 20.6579 27.6314 20.4202 27.0809C19.7877 25.6122 19.4714 23.9878 18.7851 22.5197C18.4676 21.8382 17.9143 21.1302 17.4656 20.5016C16.9643 19.7937 16.4116 19.2955 16.0155 18.4572C15.8837 18.1634 15.6992 17.697 15.9103 17.3821C15.9623 17.1723 16.0687 17.0883 16.2786 17.0413C16.6215 16.7476 17.598 17.12 17.9409 17.2763C18.9163 17.6699 19.7339 18.0365 20.5515 18.5864C20.9209 18.8484 21.317 19.3466 21.7917 19.4782H22.3462C23.1904 19.6615 24.1392 19.537 24.9296 19.772C26.3276 20.2185 27.5933 20.8729 28.7283 21.5814C32.1831 23.7569 35.0325 26.8501 36.9571 30.5465C37.2734 31.1493 37.4052 31.6998 37.6961 32.3289C38.2507 33.6139 38.9364 34.924 39.4891 36.1829C40.0436 37.4149 40.5709 38.674 41.362 39.6961C41.758 40.2466 43.3398 40.5344 44.0517 40.8229C44.5795 41.0579 45.3965 41.2695 45.8725 41.5574C46.7685 42.1078 47.6654 42.737 48.5089 43.3398C48.9304 43.6535 50.25 44.3091 50.3284 44.832L50.3314 44.8178ZM23.4339 22.0397C23.0695 22.0365 22.7062 22.0805 22.3533 22.1707V22.2295H22.4053C22.6164 22.6489 22.9858 22.9374 23.2495 23.3046L23.8566 24.563L23.9086 24.5042C24.2781 24.2422 24.4631 23.8227 24.4631 23.1941C24.3047 23.0108 24.2787 22.8269 24.1469 22.6436C23.9884 22.3816 23.6456 22.25 23.4339 22.0409V22.0397Z" fill="black"/>
</g>
</g>
<defs>
<clipPath id="clip0_19_39">
<rect width="68" height="68" rx="34" fill="white"/>
</clipPath>
</defs>
</svg>
