<svg width="68" height="68" viewBox="0 0 68 68" fill="none" xmlns="http://www.w3.org/2000/svg">
<g clip-path="url(#clip0_1_479)">
<g clip-path="url(#clip1_1_479)">
<path d="M31.7733 0.0182963C31.6271 0.0315883 31.1617 0.0781278 30.7428 0.111341C21.0847 0.981988 12.0379 6.19258 6.30812 14.2012C3.11749 18.6541 1.07685 23.7052 0.305762 29.0553C0.0332519 30.923 0 31.4747 0 34.0066C0 36.5389 0.0332519 37.0907 0.305762 38.958C2.15366 51.7252 11.2403 62.4523 23.564 66.4267C25.771 67.1379 28.0973 67.623 30.7428 67.9154C31.7733 68.0282 36.2267 68.0282 37.2572 67.9154C41.8237 67.4102 45.6923 66.2805 49.5077 64.333C50.0925 64.0341 50.2058 63.9543 50.1259 63.888C50.0728 63.8478 47.5799 60.5048 44.589 56.4641L39.1517 49.1202L32.3381 39.0379C28.5892 33.495 25.5051 28.9621 25.4782 28.9621C25.4517 28.9557 25.4252 33.4352 25.4119 38.905C25.3919 48.4821 25.3854 48.8676 25.2657 49.0933C25.093 49.419 24.9601 49.5519 24.6806 49.6984C24.468 49.8045 24.2819 49.8245 23.2782 49.8245H22.1283L21.8225 49.6318C21.6231 49.5057 21.4768 49.3394 21.3771 49.1467L21.2375 48.8475L21.2508 35.5222L21.2708 22.1899L21.4768 21.9307C21.5832 21.7911 21.8092 21.6116 21.9687 21.5252C22.2412 21.3923 22.3476 21.379 23.4976 21.379C24.8537 21.379 25.0794 21.4322 25.432 21.8177C25.5316 21.924 29.2206 27.4803 33.6345 34.1729C38.048 40.8655 44.0837 50.004 47.0482 54.49L52.4324 62.6451L52.7051 62.4656C55.1177 60.8971 57.6705 58.6639 59.6911 56.3377C63.9917 51.3995 66.7638 45.3783 67.6943 38.958C67.9667 37.0907 68 36.5389 68 34.0066C68 31.4747 67.9667 30.923 67.6943 29.0553C65.8464 16.2881 56.7596 5.56119 44.436 1.58679C42.2623 0.882314 39.9493 0.397137 37.3568 0.104712C36.7186 0.0382514 32.3248 -0.034872 31.7733 0.0182963ZM45.6923 20.5815C46.0112 20.741 46.2706 21.0467 46.3638 21.3657C46.4168 21.5385 46.4301 25.2339 46.4168 33.5613L46.3967 45.5113L44.2898 42.281L42.176 39.0512V30.3648C42.176 24.7488 42.2025 21.5917 42.2423 21.4389C42.3487 21.0667 42.5813 20.7742 42.9005 20.6014C43.1729 20.4619 43.2728 20.4486 44.3163 20.4486C45.3002 20.4486 45.473 20.4619 45.6923 20.5815Z" fill="white"/>
</g>
</g>
<defs>
<clipPath id="clip0_1_479">
<rect width="68" height="68" rx="34" fill="white"/>
</clipPath>
<clipPath id="clip1_1_479">
<rect width="68" height="68" fill="white"/>
</clipPath>
</defs>
</svg>
