<svg width="68" height="68" viewBox="0 0 68 68" fill="none" xmlns="http://www.w3.org/2000/svg">
<g clip-path="url(#clip0_1_484)">
<g clip-path="url(#clip1_1_484)">
<path d="M52.0625 0H15.9375C7.13546 0 0 7.13546 0 15.9375V52.0625C0 60.8645 7.13546 68 15.9375 68H52.0625C60.8645 68 68 60.8645 68 52.0625V15.9375C68 7.13546 60.8645 0 52.0625 0Z" fill="white"/>
<path d="M31.8426 8.26529C33.1492 7.5174 34.8508 7.51408 36.1561 8.26529C42.7229 11.9758 49.2918 15.6807 55.8575 19.3935C57.0926 20.0891 57.9185 21.4635 57.906 22.8865V45.211C57.9153 46.6929 57.0076 48.1002 55.7048 48.7799C49.1595 52.4702 42.6174 56.1648 36.0732 59.8551C34.74 60.6175 33.0042 60.5588 31.7122 59.7337C29.75 58.5963 27.7844 57.4642 25.822 56.3279C25.4209 56.0888 24.9689 55.8987 24.6857 55.5098C24.936 55.1724 25.3836 55.1305 25.7473 54.983C26.5662 54.7225 27.3187 54.3044 28.071 53.8988C28.2614 53.7686 28.4936 53.8185 28.6761 53.9349C30.354 54.897 32.0174 55.8872 33.7009 56.84C34.06 57.0475 34.4237 56.772 34.7307 56.601C41.1536 52.9707 47.5843 49.3545 54.0063 45.7231C54.2443 45.6086 54.3758 45.356 54.3564 45.0954C54.361 37.731 54.3575 30.3654 54.3588 23.0009C54.3859 22.7052 54.2149 22.4334 53.9474 22.3122C47.425 18.639 40.9055 14.9601 34.3841 11.2859C34.1527 11.1268 33.8475 11.1264 33.6159 11.2847C27.0943 14.9601 20.5763 18.6424 14.0549 22.3154C13.7884 22.4367 13.6096 22.7042 13.6413 23.0009C13.6424 30.3654 13.6413 37.731 13.6413 45.0965C13.6181 45.3571 13.7596 45.6044 13.9959 45.7164C15.7362 46.7032 17.4788 47.6831 19.2201 48.6667C20.2012 49.1945 21.4057 49.5085 22.4866 49.104C23.4404 48.7618 24.109 47.7883 24.0908 46.7758C24.0998 39.4543 24.0863 32.1319 24.0976 24.8114C24.0738 24.4864 24.382 24.2179 24.6981 24.2485C25.5343 24.2428 26.3715 24.2372 27.2077 24.2508C27.5567 24.2428 27.7969 24.5928 27.7538 24.9202C27.7504 32.288 27.7629 39.6559 27.7483 47.0236C27.7504 48.9874 26.9437 51.124 25.1274 52.0848C22.8899 53.2437 20.1243 52.998 17.9137 51.8867C16.0001 50.9315 14.1738 49.8041 12.2941 48.781C10.9879 48.1049 10.0847 46.6921 10.0939 45.2112V22.8865C10.0802 21.434 10.9391 20.0347 12.2125 19.3493C18.7567 15.6561 25.2997 11.9601 31.8426 8.26529Z" fill="#1A212C"/>
<path d="M37.552 23.7296C40.4061 23.5459 43.4616 23.6208 46.0299 25.0268C48.0187 26.1044 49.121 28.3658 49.1561 30.575C49.1005 30.8728 48.789 31.0372 48.5045 31.0168C47.6765 31.0157 46.848 31.0282 46.0201 31.0112C45.6687 31.0247 45.4647 30.7009 45.4206 30.3904C45.1826 29.3332 44.6059 28.2864 43.6111 27.7764C42.0838 27.0119 40.3131 27.0505 38.6477 27.0664C37.4319 27.1307 36.1245 27.2361 35.0944 27.9509C34.3036 28.4925 34.0635 29.5859 34.3456 30.4664C34.6118 31.0986 35.3414 31.3026 35.9388 31.4906C39.3784 32.3903 43.0233 32.3005 46.3973 33.4844C47.7942 33.9671 49.1606 34.9055 49.6387 36.3681C50.2642 38.3284 49.9901 40.6712 48.5953 42.2447C47.4643 43.5397 45.8172 44.2446 44.1743 44.6274C41.9887 45.1148 39.7205 45.1273 37.501 44.9108C35.414 44.6728 33.2419 44.1246 31.6309 42.7027C30.2531 41.5063 29.5803 39.6421 29.647 37.8433C29.6629 37.5395 29.9655 37.3275 30.2566 37.3525C31.0904 37.3458 31.9244 37.3434 32.7582 37.3538C33.0916 37.3299 33.3384 37.6178 33.3556 37.9318C33.5092 38.9388 33.8877 39.996 34.7661 40.5928C36.4608 41.6864 38.5876 41.6115 40.5283 41.642C42.1361 41.5709 43.941 41.5493 45.253 40.4866C45.9452 39.8804 46.1502 38.8663 45.9632 37.9939C45.7606 37.2574 44.99 36.9142 44.3283 36.6897C40.9328 35.6158 37.247 36.0055 33.8845 34.7908C32.5192 34.3084 31.199 33.3962 30.6747 31.9937C29.9429 30.0087 30.2781 27.5533 31.819 26.0329C33.3214 24.5204 35.4899 23.9381 37.552 23.7296Z" fill="#1A212C"/>
</g>
</g>
<defs>
<clipPath id="clip0_1_484">
<rect width="68" height="68" rx="34" fill="white"/>
</clipPath>
<clipPath id="clip1_1_484">
<rect width="68" height="68" fill="white"/>
</clipPath>
</defs>
</svg>
