<svg width="68" height="68" viewBox="0 0 68 68" fill="none" xmlns="http://www.w3.org/2000/svg">
<g clip-path="url(#clip0_1_458)">
<path d="M52.0625 0H15.9375C7.13546 0 0 7.13546 0 15.9375V52.0625C0 60.8645 7.13546 68 15.9375 68H52.0625C60.8645 68 68 60.8645 68 52.0625V15.9375C68 7.13546 60.8645 0 52.0625 0Z" fill="#F4F2ED"/>
<path d="M13.0576 26.6279H20.6035C22.8182 26.6465 24.4232 27.285 25.4182 28.5425C26.4132 29.8 26.7415 31.5175 26.4037 33.6951C26.2724 34.6901 25.9813 35.666 25.5308 36.6233C25.0989 37.5807 24.4986 38.4439 23.7288 39.2137C22.7901 40.1896 21.786 40.8091 20.7161 41.072C19.6462 41.335 18.5385 41.4662 17.3937 41.4662H14.0149L12.945 46.8159H9.03125L13.0576 26.6279ZM16.3519 29.8377L14.6625 38.2846C14.7751 38.3032 14.8877 38.3127 15.0004 38.3127C15.1316 38.3127 15.2633 38.3127 15.3946 38.3127C17.1966 38.3313 18.6984 38.1533 19.8996 37.7777C21.1007 37.3836 21.9082 36.0135 22.321 33.6669C22.6589 31.696 22.321 30.5602 21.3074 30.26C20.3123 29.9599 19.0644 29.8191 17.5626 29.8377C17.3373 29.8563 17.1217 29.8658 16.915 29.8658C16.7275 29.8658 16.5304 29.8658 16.3237 29.8658L16.3519 29.8377Z" fill="#1A222E"/>
<path d="M30.8619 21.25H34.7475L33.6494 26.6278H37.1407C39.0554 26.6656 40.4818 27.0597 41.4205 27.8104C42.3778 28.5611 42.6594 29.988 42.2652 32.0902L40.3787 41.4662H36.4368L38.2388 32.5125C38.4264 31.5738 38.3701 30.9076 38.0699 30.5134C37.7697 30.1192 37.1222 29.9221 36.1271 29.9221L33.0018 29.894L30.693 41.4662H26.8074L30.8619 21.25Z" fill="#1A222E"/>
<path d="M46.4376 26.6279H53.9835C56.1983 26.6465 57.8032 27.285 58.7982 28.5425C59.7933 29.8 60.1216 31.5175 59.7837 33.6951C59.6525 34.6901 59.3613 35.666 58.9108 36.6233C58.4789 37.5807 57.8786 38.4439 57.1088 39.2137C56.1701 40.1896 55.1661 40.8091 54.0961 41.072C53.0262 41.335 51.9185 41.4662 50.7737 41.4662H47.3949L46.325 46.8159H42.4113L46.4376 26.6279ZM49.7319 29.8377L48.0425 38.2846C48.1552 38.3032 48.2678 38.3127 48.3804 38.3127C48.5116 38.3127 48.6434 38.3127 48.7746 38.3127C50.5766 38.3313 52.0784 38.1533 53.2796 37.7777C54.4808 37.3836 55.2883 36.0135 55.701 33.6669C56.0389 31.696 55.701 30.5602 54.6874 30.26C53.6924 29.9599 52.4445 29.8191 50.9426 29.8377C50.7174 29.8563 50.5017 29.8658 50.295 29.8658C50.1075 29.8658 49.9104 29.8658 49.7038 29.8658L49.7319 29.8377Z" fill="#1A222E"/>
</g>
<defs>
<clipPath id="clip0_1_458">
<rect width="68" height="68" rx="34" fill="white"/>
</clipPath>
</defs>
</svg>
