<svg width="68" height="68" viewBox="0 0 68 68" fill="none" xmlns="http://www.w3.org/2000/svg">
<g clip-path="url(#clip0_1_363)">
<g clip-path="url(#clip1_1_363)">
<path d="M52.0625 0H15.9375C7.13546 0 0 7.13546 0 15.9375V52.0625C0 60.8645 7.13546 68 15.9375 68H52.0625C60.8645 68 68 60.8645 68 52.0625V15.9375C68 7.13546 60.8645 0 52.0625 0Z" fill="white"/>
<path d="M44.9068 23.5376L31.4821 36.9625L27.6962 33.1768C40.8985 19.9746 42.203 21.1199 44.9068 23.5376Z" fill="#1A222D"/>
<path d="M31.4822 37.2805C31.3865 37.2805 31.3231 37.2489 31.2593 37.1851L27.4417 33.3994C27.3145 33.2722 27.3145 33.0815 27.4417 32.9543C40.8667 19.5291 42.2663 20.8016 45.0978 23.3467C45.1616 23.4103 45.1932 23.4739 45.1932 23.5694C45.1932 23.6648 45.1616 23.7285 45.0978 23.7919L31.6729 37.1851C31.6413 37.2489 31.5456 37.2805 31.4822 37.2805ZM28.1417 33.1769L31.4822 36.5171L44.4298 23.5694C42.0758 21.4696 40.485 20.8334 28.1417 33.1769Z" fill="white"/>
<path d="M35.3313 40.812L31.6729 37.1535L45.0978 23.7287C48.6928 27.3551 43.3163 33.2406 35.3313 40.812Z" fill="#1A222D"/>
<path d="M35.3313 41.1302C35.2356 41.1302 35.1724 41.0983 35.1087 41.0345L31.4502 37.3761C31.3865 37.3126 31.3865 37.2489 31.3865 37.1535C31.3865 37.0579 31.4183 36.9944 31.4821 36.9306L44.9068 23.5059C45.034 23.3786 45.225 23.3786 45.3522 23.5059C46.1794 24.2693 46.6248 25.3509 46.593 26.4643C46.5295 29.9954 42.5209 34.481 35.5857 41.0345C35.4904 41.0983 35.3948 41.1302 35.3313 41.1302ZM32.1183 37.1535C34.154 39.2211 35.0133 40.0485 35.3313 40.3665C40.6759 35.2766 45.8612 30.0592 45.8931 26.4643C45.9249 25.6373 45.607 24.8102 45.0659 24.1738L32.1183 37.1535Z" fill="white"/>
<path d="M27.7599 33.2722L30.464 35.9762C30.5275 36.04 30.5275 36.1035 30.464 36.1672C30.4321 36.1991 30.4321 36.1991 30.4005 36.1991L24.8012 37.408C24.515 37.4398 24.2605 37.2488 24.1969 36.9625C24.1651 36.8034 24.2287 36.6445 24.3241 36.5489L27.5689 33.3041C27.6327 33.2403 27.728 33.2084 27.7599 33.2722Z" fill="#1A222D"/>
<path d="M24.7057 37.7262C24.2287 37.7262 23.8787 37.3442 23.8787 36.8669C23.8787 36.6446 23.9741 36.4217 24.1332 36.2626L27.3779 33.0177C27.5689 32.8586 27.8236 32.8586 28.0144 33.0177L30.7184 35.7218C30.9091 35.8809 30.9091 36.1672 30.7184 36.3579C30.6547 36.4217 30.5912 36.4536 30.4956 36.4854L24.8966 37.6943C24.833 37.6943 24.7694 37.7262 24.7057 37.7262ZM27.6645 33.622L24.5468 36.7396C24.4832 36.8034 24.4514 36.8988 24.515 36.9941C24.5468 37.0897 24.6421 37.1216 24.7376 37.0897L29.9866 35.9444L27.6645 33.622Z" fill="white"/>
<path d="M52.0012 16.0936C49.9651 14.1213 46.6884 14.1849 44.7159 16.2527C42.7436 18.3205 42.8073 21.5653 44.875 23.5379C46.5612 25.1602 49.1064 25.4466 51.1105 24.2377L47.4837 20.611L52.0012 16.0936Z" fill="#1A222D"/>
<path d="M48.438 25.2874C45.416 25.2874 42.9664 22.8378 42.9664 19.8157C42.9664 16.7933 45.416 14.3438 48.438 14.3438C49.8379 14.3438 51.2059 14.8847 52.2237 15.8708C52.2875 15.9345 52.3194 15.9981 52.3194 16.0936C52.3194 16.189 52.2875 16.2526 52.2237 16.3163L47.9291 20.6109L51.3012 23.983C51.4287 24.1103 51.4287 24.3012 51.3012 24.4285C51.2696 24.4603 51.2696 24.4603 51.2377 24.4921C50.4106 25.001 49.4243 25.2874 48.438 25.2874ZM48.438 15.0119C45.7659 15.0119 43.6026 17.1752 43.6345 19.8475C43.6345 22.5198 45.7975 24.683 48.4699 24.6512C49.2017 24.6512 49.9332 24.4921 50.6013 24.1421L47.2611 20.8337C47.1973 20.77 47.1657 20.7064 47.1657 20.6109C47.1657 20.5155 47.1973 20.4518 47.2611 20.3882L51.5241 16.1254C50.665 15.3938 49.5834 15.0119 48.438 15.0119Z" fill="white"/>
<path d="M52.0965 16.1891L52.033 16.1254L47.4836 20.611L51.0786 24.2058C51.4287 23.9831 51.7783 23.7288 52.0649 23.4424C54.1006 21.4381 54.1006 18.1932 52.0965 16.1891Z" fill="#1A222D"/>
<path d="M51.1104 24.5557C51.0148 24.5557 50.9513 24.5238 50.8876 24.4602L47.261 20.8335C47.1973 20.7699 47.1656 20.7063 47.1656 20.6108C47.1656 20.5154 47.1973 20.4517 47.261 20.3881L51.7782 15.8707C51.9057 15.7435 52.0964 15.7435 52.2237 15.8707L52.3193 15.9344C54.4507 18.0658 54.4507 21.5015 52.3512 23.665C52.033 23.983 51.6829 24.2693 51.3012 24.4921C51.2058 24.5238 51.1423 24.5557 51.1104 24.5557ZM47.9291 20.6108L51.1423 23.8238C51.3968 23.665 51.6513 23.4422 51.842 23.2513C53.6554 21.4379 53.7508 18.4794 52.0011 16.5707L47.9291 20.6108Z" fill="white"/>
<path d="M45.448 24.1101C44.6843 23.3467 43.4436 23.3467 42.6801 24.1101L30.6866 36.1035L32.6911 38.1076L45.3842 26.9734C46.2114 26.2733 46.2748 25.0326 45.5752 24.2055C45.5114 24.1738 45.4796 24.1419 45.448 24.1101Z" fill="#1A222D"/>
<path d="M32.6591 38.4258C32.5637 38.4258 32.5 38.394 32.4362 38.3305L30.4321 36.3263C30.3049 36.1991 30.3049 36.0081 30.4321 35.8809L42.4253 23.8874C43.3162 22.9967 44.7477 22.9967 45.6386 23.8874C46.5295 24.7783 46.5295 26.2097 45.6386 27.1006C45.607 27.1325 45.5751 27.1641 45.5432 27.196L32.8498 38.3305C32.8182 38.394 32.7545 38.4258 32.6591 38.4258ZM31.132 36.1035L32.691 37.6624L45.1615 26.7187C45.8612 26.1461 45.9249 25.0963 45.3523 24.3965C44.7796 23.6967 43.7298 23.633 43.0299 24.2056C42.9983 24.2374 42.9664 24.2692 42.9027 24.301L31.132 36.1035Z" fill="white"/>
<path d="M21.4927 49.7516C21.3654 49.8151 21.3018 49.9423 21.3336 50.0695L21.8745 52.3603C22.0018 52.6782 21.8109 53.0602 21.4609 53.1556C21.2064 53.2509 20.9202 53.1556 20.7611 52.9648L17.2617 49.4971L28.6824 38.0763L32.6272 38.1398L35.2994 40.8122C34.6632 41.353 30.8138 45.075 21.4927 49.7516Z" fill="#1A222D"/>
<path d="M21.2382 53.4733C20.9839 53.4733 20.7293 53.3779 20.5702 53.1872L17.1026 49.7194C17.039 49.656 17.0072 49.5922 17.0072 49.4968C17.0072 49.4015 17.039 49.3377 17.1026 49.274L28.5233 37.8534C28.5871 37.7897 28.6825 37.7578 28.7462 37.7578L32.691 37.8216C32.7864 37.8216 32.8498 37.8534 32.9133 37.9169L35.5858 40.5891C35.6495 40.6529 35.6811 40.7482 35.6811 40.8436C35.6811 40.9392 35.6495 41.0027 35.5539 41.0664L35.3313 41.2574C31.9592 44.2157 27.378 47.1745 21.6837 50.0058L22.2246 52.2644C22.3198 52.678 22.1291 53.1234 21.7473 53.346C21.5564 53.4414 21.3973 53.4733 21.2382 53.4733ZM17.7388 49.4968L21.0157 52.7417C21.1109 52.9008 21.3018 52.9643 21.4609 52.869C21.62 52.7736 21.6837 52.5826 21.5882 52.4235L21.0475 50.133C20.9839 49.8467 21.1109 49.5922 21.3655 49.465C26.9963 46.6337 31.5456 43.707 34.8859 40.812L32.5319 38.4577L28.8734 38.394L17.7388 49.4968Z" fill="white"/>
<path d="M14.5576 52.2328L17.2936 49.4968L21.3655 53.5689L14.8758 53.1237C14.5894 53.0918 14.3985 52.8373 14.4303 52.5507C14.4303 52.4235 14.4622 52.2962 14.5576 52.2328Z" fill="#1A222D"/>
<path d="M21.3655 53.8552L14.844 53.4097C14.3667 53.3779 14.0485 52.9645 14.0803 52.4872C14.1121 52.2962 14.1758 52.1055 14.3349 51.9783L17.0708 49.2423C17.1981 49.1151 17.389 49.1151 17.5161 49.2423L21.5882 53.3144C21.6837 53.4097 21.7155 53.537 21.6518 53.6645C21.5882 53.7917 21.4928 53.8552 21.3655 53.8552ZM17.2936 49.9423L14.7803 52.4553C14.6849 52.5191 14.6849 52.6782 14.7803 52.7417C14.8121 52.7736 14.844 52.8054 14.9076 52.8054L20.5384 53.1871L17.2936 49.9423Z" fill="white"/>
<path d="M27.569 39.5396C27.378 39.5396 27.2507 39.3805 27.2507 39.2214C27.2507 39.126 27.2826 39.0625 27.3464 38.9988L30.4321 35.913C30.5594 35.7855 30.7503 35.7855 30.8776 35.913L32.8817 37.9171C32.9771 38.0125 33.009 38.1079 32.9771 38.2354C32.9452 38.3307 32.8498 38.4261 32.7229 38.458L27.6327 39.5396C27.6008 39.5396 27.569 39.5396 27.569 39.5396ZM30.6547 36.5811L28.5552 38.6808L31.9908 37.9488L30.6547 36.5811Z" fill="white"/>
<path d="M32.6272 38.1395L29.1279 38.9032C28.8734 38.9669 28.6187 38.8078 28.5552 38.5533C28.5233 38.3942 28.5552 38.2351 28.6824 38.1079L30.6228 36.1672L32.6272 38.1395Z" fill="#1A222D"/>
<path d="M29.0642 39.2214C28.6187 39.2214 28.2689 38.8715 28.2689 38.4261C28.2689 38.2035 28.3643 38.0125 28.4915 37.8537L30.4322 35.913C30.5594 35.7855 30.7504 35.7855 30.8776 35.913L32.8818 37.9171C32.9771 38.0125 33.009 38.1079 32.9771 38.2354C32.9452 38.3307 32.8499 38.4261 32.7229 38.458L29.2233 39.2214C29.1598 39.2214 29.0961 39.2214 29.0642 39.2214ZM30.6548 36.5811L28.937 38.2989C28.8735 38.3626 28.8735 38.4261 28.9051 38.4898C28.937 38.5533 29.0007 38.5852 29.0961 38.5852L32.0227 37.9488L30.6548 36.5811Z" fill="white"/>
<path d="M52.1283 19.2428C52.0648 19.052 51.842 18.9566 51.651 19.0203C51.4603 19.0837 51.3649 19.3064 51.4287 19.4973C51.4287 19.5291 51.4603 19.5609 51.4603 19.5928C51.651 19.9746 51.5878 20.4517 51.333 20.8016C51.2058 20.9607 51.2377 21.1835 51.3649 21.3107C51.524 21.4378 51.7466 21.4062 51.8739 21.2471C52.3512 20.6426 52.4465 19.8791 52.1283 19.2428Z" fill="white"/>
</g>
</g>
<defs>
<clipPath id="clip0_1_363">
<rect width="68" height="68" rx="34" fill="white"/>
</clipPath>
<clipPath id="clip1_1_363">
<rect width="68" height="68" fill="white"/>
</clipPath>
</defs>
</svg>
