<svg width="68" height="68" viewBox="0 0 68 68" fill="none" xmlns="http://www.w3.org/2000/svg">
<g clip-path="url(#clip0_1_392)">
<path d="M52.0625 0H15.9375C7.13546 0 0 7.13546 0 15.9375V52.0625C0 60.8645 7.13546 68 15.9375 68H52.0625C60.8645 68 68 60.8645 68 52.0625V15.9375C68 7.13546 60.8645 0 52.0625 0Z" fill="#F4F2ED"/>
<path d="M33.8085 7.70312C20.3221 7.70312 21.1643 13.5517 21.1643 13.5517L21.1793 19.6107H34.0491V21.4299H16.0675C16.0675 21.4299 7.4375 20.4512 7.4375 34.059C7.4375 47.6669 14.9699 47.1846 14.9699 47.1846H19.4653V40.8699C19.4653 40.8699 19.223 33.3375 26.8775 33.3375H39.6419C39.6419 33.3375 46.8135 33.4533 46.8135 26.4064V14.7544C46.8135 14.7544 47.9023 7.70312 33.8085 7.70312ZM26.712 11.7775C27.9926 11.7775 29.0275 12.8124 29.0275 14.0929C29.0275 15.3733 27.9926 16.4083 26.712 16.4083C25.4316 16.4083 24.3967 15.3733 24.3967 14.0929C24.3967 12.8124 25.4316 11.7775 26.712 11.7775Z" fill="#1A222D"/>
<path d="M34.1915 60.5513C47.6778 60.5513 46.8358 54.7031 46.8358 54.7031L46.8207 48.6439H33.9509V46.8246H51.9326C51.9326 46.8246 60.5625 47.8035 60.5625 34.1955C60.5625 20.5876 53.0302 21.0702 53.0302 21.0702H48.5347V27.3849C48.5347 27.3849 48.777 34.9172 41.1225 34.9172H28.3581C28.3581 34.9172 21.1864 34.8011 21.1864 41.8482V53.5001C21.1864 53.5001 20.0976 60.5513 34.1915 60.5513ZM41.288 56.4769C40.0074 56.4769 38.9725 55.442 38.9725 54.1617C38.9725 52.8812 40.0074 51.8463 41.288 51.8463C42.5683 51.8463 43.6034 52.8812 43.6034 54.1617C43.6034 55.442 42.5683 56.4769 41.288 56.4769Z" fill="#1A222E"/>
</g>
<defs>
<clipPath id="clip0_1_392">
<rect width="68" height="68" rx="34" fill="white"/>
</clipPath>
</defs>
</svg>
