<svg width="68" height="68" viewBox="0 0 68 68" fill="none" xmlns="http://www.w3.org/2000/svg">
<g clip-path="url(#clip0_1_397)">
<g clip-path="url(#clip1_1_397)">
<path d="M52.0625 0H15.9375C7.13546 0 0 7.13546 0 15.9375V52.0625C0 60.8645 7.13546 68 15.9375 68H52.0625C60.8645 68 68 60.8645 68 52.0625V15.9375C68 7.13546 60.8645 0 52.0625 0Z" fill="#F4F2ED"/>
<path d="M34.0002 39.0339C36.7372 39.0339 38.9557 36.8151 38.9557 34.0784C38.9557 31.3416 36.7372 29.1229 34.0002 29.1229C31.2635 29.1229 29.0447 31.3416 29.0447 34.0784C29.0447 36.8151 31.2635 39.0339 34.0002 39.0339Z" fill="#1A222E"/>
<path fill-rule="evenodd" clip-rule="evenodd" d="M34.0005 24.0027C40.6539 24.0027 46.8347 24.9575 51.4951 26.5619C57.1102 28.4949 60.5625 31.425 60.5625 34.0784C60.5625 36.8432 56.9038 39.9561 50.8738 41.9539C46.3152 43.4642 40.3163 44.2526 34.0005 44.2526C27.5251 44.2526 21.3931 43.5126 16.7831 41.9371C10.9505 39.9436 7.4375 36.7907 7.4375 34.0784C7.4375 31.4465 10.7338 28.539 16.2699 26.609C20.9476 24.9781 27.281 24.0027 33.9995 24.0027H34.0005Z" stroke="#1A222E" stroke-width="1.67081"/>
<path fill-rule="evenodd" clip-rule="evenodd" d="M25.2293 29.0695C28.5533 23.306 32.4678 18.4286 36.1861 15.193C40.6656 11.2945 44.9288 9.76778 47.227 11.0931C49.6222 12.4744 50.491 17.1991 49.2094 23.4205C48.2412 28.1241 45.9265 33.7145 42.7712 39.1858C39.5361 44.7953 35.832 49.7375 32.1645 52.943C27.5238 56.9997 23.0372 58.4678 20.6877 57.1128C18.4079 55.799 17.536 51.4903 18.6297 45.7303C19.5538 40.8632 21.8729 34.8896 25.2282 29.0695H25.2293Z" stroke="#1A222E" stroke-width="1.67081"/>
<path fill-rule="evenodd" clip-rule="evenodd" d="M25.2376 39.2004C21.9043 33.4432 19.6348 27.6149 18.6875 22.7778C17.5472 16.9498 18.3535 12.4938 20.6497 11.1646C23.0426 9.77933 27.5698 11.3863 32.3197 15.6038C35.9109 18.7924 39.5986 23.5889 42.763 29.0549C46.0073 34.659 48.4389 40.3367 49.3847 45.1148C50.5816 51.1615 49.6129 55.7815 47.2656 57.1402C44.9881 58.4587 40.8202 57.0629 36.376 53.2384C32.6211 50.0074 28.6038 45.0149 25.2376 39.2004Z" stroke="#1A222E" stroke-width="1.67081"/>
</g>
</g>
<defs>
<clipPath id="clip0_1_397">
<rect width="68" height="68" rx="34" fill="white"/>
</clipPath>
<clipPath id="clip1_1_397">
<rect width="68" height="68" rx="34" fill="white"/>
</clipPath>
</defs>
</svg>
