<svg width="68" height="68" viewBox="0 0 68 68" fill="none" xmlns="http://www.w3.org/2000/svg">
<g clip-path="url(#clip0_1_424)">
<g clip-path="url(#clip1_1_424)">
<path d="M52.0625 0H15.9375C7.13546 0 0 7.13546 0 15.9375V52.0625C0 60.8645 7.13546 68 15.9375 68H52.0625C60.8645 68 68 60.8645 68 52.0625V15.9375C68 7.13546 60.8645 0 52.0625 0Z" fill="white"/>
<path d="M43.0546 42.5723C44.7619 42.3899 46.057 40.8708 45.9981 39.0481C45.9393 37.2254 44.4675 35.7672 42.7014 35.7672H42.5837C40.7587 35.8278 39.3458 37.4075 39.4046 39.2911C39.4636 40.2026 39.8168 40.9923 40.3465 41.5393C38.345 45.6101 35.2838 48.5874 30.6918 51.0785C27.5718 52.7797 24.3339 53.3873 21.096 52.9621C18.4469 52.5976 16.3864 51.3822 15.0913 49.3773C13.2074 46.4001 13.0308 43.1798 14.6203 39.9596C15.7388 37.6506 17.5049 35.9493 18.6235 35.0987C18.388 34.309 18.0348 32.9721 17.8582 32C9.32198 38.3799 10.205 47.0077 12.7953 51.0785C14.738 54.1164 18.6823 56 23.0387 56C24.2161 56 25.3936 55.8785 26.5709 55.5746C34.1064 54.0558 39.8168 49.438 43.0546 42.5723Z" fill="#1A222E"/>
<path d="M53.2284 35.0736C48.8413 29.7369 42.3758 26.7989 34.9868 26.7989H34.0632C33.5436 25.7195 32.4467 25 31.2346 25H31.1191C29.3295 25.06 27.9441 26.619 28.0017 28.4778C28.0596 30.2766 29.5026 31.7156 31.2346 31.7156H31.35C32.62 31.6558 33.7169 30.8164 34.1787 29.677H35.2177C39.6048 29.677 43.7612 30.9961 47.5135 33.5745C50.3997 35.5533 52.4781 38.1316 53.6326 41.2495C54.614 43.7678 54.5562 46.2263 53.5171 48.325C51.9008 51.5029 49.1876 53.2419 45.6084 53.2419C43.2994 53.2419 41.1059 52.5224 39.9512 51.9826C39.3163 52.5822 38.1618 53.5415 37.3537 54.1411C39.8357 55.3403 42.3758 56 44.8003 56C50.3421 56 54.4407 52.822 55.9994 49.6441C57.6736 46.1664 57.5581 40.1703 53.2284 35.0736Z" fill="#1A222E"/>
<path d="M23.3073 43.8075C23.3669 45.5811 24.8559 47 26.6427 47H26.7619C28.6081 46.9408 30.0378 45.4036 29.9781 43.5708C29.9187 41.7972 28.4296 40.3784 26.6427 40.3784H26.5236C26.4045 40.3784 26.2258 40.3784 26.1067 40.4376C23.6647 36.4172 22.6522 32.0421 23.0095 27.3125C23.2478 23.7652 24.439 20.6909 26.5236 18.1487C28.2508 15.9612 31.5863 14.897 33.8495 14.8378C40.163 14.7196 42.8433 22.5236 43.0218 25.6571C43.7962 25.8345 45.1065 26.2483 46 26.5439C45.2853 16.9662 39.3292 12 33.6113 12C28.2508 12 23.3073 15.8429 21.3418 21.5186C18.602 29.0862 20.3889 36.358 23.7242 42.0929C23.4264 42.5067 23.2478 43.1571 23.3073 43.8075Z" fill="#1A222E"/>
</g>
</g>
<defs>
<clipPath id="clip0_1_424">
<rect width="68" height="68" rx="34" fill="white"/>
</clipPath>
<clipPath id="clip1_1_424">
<rect width="68" height="68" fill="white"/>
</clipPath>
</defs>
</svg>
