<svg width="68" height="68" viewBox="0 0 68 68" fill="none" xmlns="http://www.w3.org/2000/svg">
<g clip-path="url(#clip0_1_439)">
<g clip-path="url(#clip1_1_439)">
<path d="M52.0625 0H15.9375C7.13546 0 0 7.13546 0 15.9375V52.0625C0 60.8645 7.13546 68 15.9375 68H52.0625C60.8645 68 68 60.8645 68 52.0625V15.9375C68 7.13546 60.8645 0 52.0625 0Z" fill="white"/>
<path fill-rule="evenodd" clip-rule="evenodd" d="M22.0469 29.2188C23.6404 22.844 27.6253 19.6562 34 19.6562C43.5625 19.6562 44.7578 26.8281 49.5391 28.0234C52.7268 28.8206 55.5156 27.6253 57.9062 24.4375C56.3128 30.8122 52.3279 34 45.9531 34C36.3906 34 35.1953 26.8281 30.4141 25.6328C27.2263 24.8357 24.4375 26.031 22.0469 29.2188ZM10.0938 43.5625C11.6873 37.1878 15.6721 34 22.0469 34C31.6094 34 32.8047 41.1719 37.5859 42.3672C40.7737 43.1643 43.5625 41.969 45.9531 38.7812C44.3596 45.156 40.3747 48.3438 34 48.3438C24.4375 48.3438 23.2422 41.1719 18.4609 39.9766C15.2732 39.1794 12.4844 40.3747 10.0938 43.5625Z" fill="#1A212D"/>
</g>
</g>
<defs>
<clipPath id="clip0_1_439">
<rect width="68" height="68" rx="34" fill="white"/>
</clipPath>
<clipPath id="clip1_1_439">
<rect width="68" height="68" fill="white"/>
</clipPath>
</defs>
</svg>
