<svg width="68" height="68" viewBox="0 0 68 68" fill="none" xmlns="http://www.w3.org/2000/svg">
<g clip-path="url(#clip0_1_500)">
<path d="M61.3594 0H6.64062C2.97367 0 0 2.97367 0 6.64062V61.3594C0 65.0263 2.97367 68 6.64062 68H61.3594C65.0263 68 68 65.0263 68 61.3594V6.64062C68 2.97367 65.0263 0 61.3594 0ZM39.4453 37.7294H30.9161V62.0234H24.1599V37.7294H15.6719V32.2734H39.4453V37.7294ZM61.4763 57.7163C60.1537 60.083 57.7216 61.4142 55.1358 61.965C52.1329 62.6046 48.9399 62.5701 45.9279 62.0062C44.4523 61.7299 43.1747 61.3142 42.0936 60.7604V54.1105C43.2995 55.1225 44.6091 55.8809 46.0222 56.3855C47.4353 56.8916 48.863 57.1439 50.3042 57.1439C51.5795 57.1439 52.9988 56.9867 54.0972 56.282C54.8506 55.801 55.3548 55.0424 55.3549 54.132C55.3551 52.8935 54.4591 51.9576 53.4942 51.3069C52.0811 50.354 50.4563 49.7354 48.8909 49.0837C46.5627 48.1141 44.8269 46.9294 43.6834 45.5309C41.6937 43.0975 41.3679 39.2088 42.9038 36.4611C44.2145 34.1163 46.6318 32.7311 49.1818 32.1182C51.9625 31.4497 54.9784 31.4491 57.7973 31.8897C58.9953 32.077 60.1003 32.3639 61.1123 32.7517V38.9647C60.613 38.618 60.0698 38.3139 59.4801 38.0509C58.3173 37.5324 57.0624 37.1818 55.8012 37.011C54.5396 36.8423 53.2128 36.813 51.9667 37.1053C50.9853 37.3329 49.9542 37.7867 49.389 38.6632C49.1539 39.0311 49.0357 39.4428 49.0357 39.8997C49.0357 40.3977 49.1672 40.8452 49.43 41.2396C50.097 42.2402 51.2675 42.8844 52.3202 43.4006C54.1665 44.3061 56.1042 44.9878 57.8797 46.0396C59.6015 47.0559 61.1325 48.474 61.8813 50.3613C62.2412 51.2684 62.4219 52.3243 62.4219 53.5289C62.4219 55.1916 62.1071 56.5874 61.4763 57.7163Z" fill="white"/>
</g>
<defs>
<clipPath id="clip0_1_500">
<rect width="68" height="68" rx="34" fill="white"/>
</clipPath>
</defs>
</svg>
